# xmcd
#
# Track frame offsets:
#	150
#	14144
#	31324
#	44967
#	64071
#	76720
#	93024
#	109186
#	123212
#	139838
#	151472
#	167229
#
# Disc length: 2454 seconds
#
# Revision: 0
# Processed by: cddbd v1.5.2PL0 Copyright (c) Steve Scherf et al.
# Submitted via: EasyCDDAExtractor 11.6.0.1
#
DISCID=9d09940c
DTITLE=ТУТСИ - САМЫЙ-САМЫЙ
DYEAR=2005
DGENRE=Pop
TTITLE0=САМЫЙ-САМЫЙ
TTITLE1=ХОЧЕШЬ ДА,ДА,ДА
TTITLE2=СОЛЬ И САХАР
TTITLE3=МОСКОВСКАЯ ТОСКА
TTITLE4=Я ЛЮБЛЮ ЕГО
TTITLE5=ОТ ТЕБЯ ДО МЕНЯ
TTITLE6=КОСМИЧЕСКАЯ НОЧЬ
TTITLE7=ЗАВИСАЮ
TTITLE8=СТО СВЕЧЕЙ
TTITLE9=Я ЛЮБЛЮ ЕГО (EUROMIX)
TTITLE10=САМЫЙ-САМЫЙ (REMIX)
TTITLE11=САМЫЙ-САМЫЙ (TRANSFORMER LEMON REMIX)
EXTD=YEAR: 2005
EXTT0=
EXTT1=
EXTT2=
EXTT3=
EXTT4=
EXTT5=
EXTT6=
EXTT7=
EXTT8=
EXTT9=
EXTT10=
EXTT11=
PLAYORDER=
